<?xml version="1.0" encoding="utf-8"?>
<!-- Generator: Adobe Illustrator 15.1.0, SVG Export Plug-In . SVG Version: 6.00 Build 0)  -->
<!DOCTYPE svg PUBLIC "-//W3C//DTD SVG 1.0//EN" "http://www.w3.org/TR/2001/REC-SVG-20010904/DTD/svg10.dtd">
<svg version="1.0" id="Layer_1" xmlns="http://www.w3.org/2000/svg" xmlns:xlink="http://www.w3.org/1999/xlink" x="0px" y="0px"
	 width="353.843px" height="100px" viewBox="0 0 353.843 100" enable-background="new 0 0 353.843 100" xml:space="preserve">
<g>
	<path d="M132.599,33.315c0-6.826-6.302-9.752-15.41-9.752c-9.724,0-15.045,4.807-15.045,8.585c0,1.94,1.603,3.622,4.016,3.622
		c3.756,0,3.96-5.194,10.966-5.194c3.186,0,5.968,1.167,5.968,3.893c0,2.739-1.804,3.263-4.083,3.516l-5.781,0.644
		c-7.27,0.851-13.258,3.063-13.258,10.888c0,5.961,5.338,9.654,10.733,9.654c4.998,0,9.285-1.417,12.988-5.516
		c0.116,2.924,1.491,5.516,5.574,5.516c2.279,0,4.301-1.492,4.301-3.633c0-1.495-0.968-2.395-0.968-6.348V33.315 M123.094,46.103
		c0,3.478-3.173,6.837-8.353,6.837c-3.26,0-5.268-1.748-5.268-3.88c0-2.828,2.131-4.069,6.102-4.646l3.436-0.531
		c1.112-0.183,3.046-0.517,4.083-1.487V46.103z"/>
	<path d="M136.078,30.903c-0.247-0.767-0.577-1.819-0.577-2.406c0-3.373,2.338-4.931,4.614-4.931c3.556,0,4.47,2.993,4.737,3.963
		l6.369,21.407h0.13l6.348-21.407c0.271-0.971,1.165-3.963,4.759-3.963c2.257,0,4.6,1.558,4.6,4.931
		c0,0.587-0.352,1.639-0.584,2.406l-8.96,24.906c-0.929,2.521-1.505,3.364-6.243,3.364c-4.73,0-5.321-0.843-6.221-3.364
		L136.078,30.903"/>
	<path d="M200.812,33.315c0-6.826-6.281-9.752-15.394-9.752c-9.731,0-15.048,4.807-15.048,8.585c0,1.94,1.619,3.622,4.023,3.622
		c3.77,0,3.957-5.194,10.965-5.194c3.193,0,5.965,1.167,5.965,3.893c0,2.739-1.802,3.263-4.08,3.516l-5.777,0.644
		c-7.277,0.851-13.227,3.063-13.227,10.888c0,5.961,5.3,9.654,10.698,9.654c5.001,0,9.284-1.417,12.984-5.516
		c0.14,2.924,1.484,5.516,5.588,5.516c2.272,0,4.281-1.492,4.281-3.633c0-1.495-0.979-2.395-0.979-6.348V33.315 M191.323,46.103
		c0,3.478-3.165,6.837-8.353,6.837c-3.257,0-5.268-1.748-5.268-3.88c0-2.828,2.138-4.069,6.094-4.646l3.446-0.531
		c1.122-0.183,3.054-0.517,4.08-1.487V46.103z"/>
	<path d="M207.055,28.307c0-2.852,1.285-4.744,4.265-4.744c2.996,0,4.294,1.892,4.294,4.744v1.241h0.132
		c2.654-3.509,6.107-5.985,11.492-5.985c5.697,0,11.942,2.866,11.942,12.467v18.403c0,2.531-1.04,4.737-4.723,4.737
		c-3.71,0-4.775-2.206-4.775-4.737V37.922c0-3.833-1.868-6.555-5.965-6.555c-3.281,0-7.196,2.721-7.196,7.458v15.608
		c0,2.531-1.029,4.737-4.736,4.737c-3.692,0-4.729-2.206-4.729-4.737V28.307"/>
	<path d="M276.254,33.315c0-6.826-6.309-9.752-15.396-9.752c-9.735,0-15.045,4.807-15.045,8.585c0,1.94,1.609,3.622,4.023,3.622
		c3.754,0,3.952-5.194,10.95-5.194c3.193,0,5.985,1.167,5.985,3.893c0,2.739-1.817,3.263-4.086,3.516l-5.782,0.644
		c-7.272,0.851-13.251,3.063-13.251,10.888c0,5.961,5.331,9.654,10.719,9.654c5.001,0,9.285-1.417,12.991-5.516
		c0.116,2.924,1.484,5.516,5.571,5.516c2.271,0,4.297-1.492,4.297-3.633c0-1.495-0.978-2.395-0.978-6.348V33.315 M266.772,46.103
		c0,3.478-3.175,6.837-8.384,6.837c-3.238,0-5.247-1.748-5.247-3.88c0-2.828,2.125-4.069,6.102-4.646l3.443-0.531
		c1.098-0.183,3.039-0.517,4.086-1.487V46.103z"/>
	<path d="M314.623,15.513c0-3.116-1.889-4.727-4.749-4.727c-2.865,0-4.739,1.61-4.739,4.727v12.853H305
		c-1.881-3.042-5.113-4.803-9.351-4.803c-9.998,0-14.602,8.507-14.602,17.595c0,12.231,6.941,18.015,14.869,18.015
		c4.61,0,8.439-1.947,10.005-5.963h0.127v1.487c0,2.916,1.484,4.476,4.28,4.476c2.922,0,4.294-1.56,4.294-4.476V15.513
		 M290.528,41.484c0-4.399,1.492-10.512,7.529-10.512c5.775-0.07,7.597,5.648,7.597,10.512c0,5.388-2.085,10.294-7.597,10.294
		C292.995,51.639,290.528,47.069,290.528,41.484"/>
	<path d="M349.671,43.173c3.18,0,4.172-0.841,4.172-4.086c0-7.787-6.239-15.523-17.158-15.523c-11.23,0-17.919,7.41-17.919,18.449
		c0,8.212,4.993,17.159,18.266,17.159c5.691,0,14.842-2.663,14.842-8.362c0-1.749-1.619-3.676-3.904-3.676
		c-3.827,0-3.827,4.646-10.938,4.646c-5.534,0-8.781-3.619-8.781-8.605H349.671 M328.25,37.731c1.03-4.624,3.896-7.536,8.642-7.536
		c4.205,0,7.458,3.175,7.961,7.536H328.25z"/>
	<path fill="#F47929" d="M35.653,59.181c-2.92,0-5.288,2.36-5.288,5.27c0,2.906,2.367,5.288,5.288,5.288h52.744
		c2.915,0,5.276-2.382,5.276-5.288c0-2.909-2.361-5.27-5.276-5.27H35.653"/>
	<path fill="#F47929" d="M2.006,25.69c-0.26,2.891,1.873,5.458,4.787,5.719c2.905,0.267,5.477-1.889,5.736-4.801
		c0.937-10.649,8.693-16.04,23.041-16.04c17.415,0,19.833,6.306,19.833,13.125v11.434c-5.806-3.918-12.552-6.31-19.765-6.31
		C15.992,28.817,0,44.797,0,64.396C0,84.031,15.992,100,35.637,100c11.941,0,22.982-5.908,29.573-15.821
		c1.61-2.415,0.965-5.701-1.478-7.317c-2.422-1.611-5.694-0.962-7.319,1.469c-4.635,6.956-12.392,11.103-20.776,11.103
		c-13.828,0-25.075-11.229-25.075-25.036c0-13.808,11.247-25.019,25.075-25.019c8.302,0,16.023,4.098,20.662,10.932
		c1.302,1.921,3.711,2.774,5.918,2.087c2.226-0.675,3.742-2.711,3.742-5.024V23.693C65.959,12.882,60.681,0,35.569,0
		C15.69,0,3.439,9.352,2.006,25.69"/>
	<path fill="#F47929" d="M112.652,97.624l-6.767-9.409h-0.162v9.409h-3.513V75.868c1.579-0.091,3.386-0.126,5.833-0.126
		c4.513,0,7.611,1.579,7.611,5.9c0,3.479-2.617,5.705-6.162,6.084c0.612,0.781,1.291,1.615,1.84,2.324l5.736,7.573H112.652z
		 M107.563,78.611c-0.679,0-1.322,0.031-1.839,0.063v6.898c0.323,0.031,0.935,0.063,1.709,0.063c2.838,0,4.543-1.448,4.543-3.612
		C111.977,79.639,110.493,78.611,107.563,78.611"/>
	<path fill="#F47929" d="M131.825,89.823h-10.216c-0.095,3.71,1.544,5.384,4.737,5.384c1.646,0,3.352-0.386,4.67-1.027l0.327,2.733
		c-1.611,0.683-3.577,1.034-5.546,1.034c-4.994,0-7.737-2.578-7.737-8.22c0-4.835,2.645-8.439,7.323-8.439
		c4.571,0,6.541,3.123,6.541,6.927C131.924,88.666,131.889,89.211,131.825,89.823 M125.253,83.835c-1.938,0-3.289,1.412-3.577,3.576
		h6.794C128.538,85.216,127.282,83.835,125.253,83.835"/>
	<path fill="#F47929" d="M138.202,97.947c-1.192,0-2.384-0.135-3.379-0.323l0.095-2.93c0.999,0.284,2.254,0.513,3.479,0.513
		c1.871,0,3.158-0.805,3.158-2.127c0-3.226-7.026-1.292-7.026-6.833c0-2.769,2.258-4.959,6.604-4.959
		c0.939,0,2.033,0.127,3.003,0.284l-0.098,2.807c-0.971-0.288-2.092-0.451-3.126-0.451c-1.903,0-2.838,0.775-2.838,1.999
		c0,3.095,7.09,1.513,7.09,6.834C145.162,95.76,142.489,97.947,138.202,97.947"/>
	<path fill="#F47929" d="M158.563,97.624c0-0.838,0.063-2.224,0.229-3.126l-0.035-0.033c-0.935,2.065-2.87,3.482-5.574,3.482
		c-3.647,0-4.772-2.291-4.772-5.127V81.608h3.418V91.92c0,2.004,0.542,3.157,2.385,3.157c2.416,0,4.188-2.547,4.188-5.735v-7.733
		h3.447v16.016H158.563z"/>
	<rect x="165.545" y="74.1" fill="#F47929" width="3.446" height="23.527"/>
	<path fill="#F47929" d="M178.88,97.911c-3.418,0-4.441-1.318-4.441-4.895v-8.731h-3.064v-2.677h3.064v-5.094l3.414-0.931v6.024
		h4.22v2.677h-4.188v7.666c0,2.387,0.481,3.03,2.096,3.03c0.708,0,1.48-0.098,2.092-0.259v2.834
		C181.146,97.754,179.95,97.911,178.88,97.911"/>
	<path fill="#F47929" d="M188.164,97.947c-1.188,0-2.384-0.135-3.379-0.323l0.095-2.93c0.999,0.284,2.258,0.513,3.483,0.513
		c1.866,0,3.157-0.805,3.157-2.127c0-3.226-7.027-1.292-7.027-6.833c0-2.769,2.258-4.959,6.605-4.959
		c0.936,0,2.032,0.127,2.999,0.284L194,84.379c-0.968-0.288-2.092-0.451-3.126-0.451c-1.9,0-2.836,0.775-2.836,1.999
		c0,3.095,7.092,1.513,7.092,6.834C195.13,95.76,192.456,97.947,188.164,97.947"/>
	<path fill="#F47929" d="M216.497,97.624l-6.767-9.409h-0.162v9.409h-3.509V75.868c1.582-0.091,3.382-0.126,5.83-0.126
		c4.512,0,7.609,1.579,7.609,5.9c0,3.479-2.616,5.705-6.161,6.084c0.615,0.781,1.29,1.615,1.841,2.324l5.732,7.573H216.497z
		 M211.407,78.611c-0.681,0-1.322,0.031-1.839,0.063v6.898c0.323,0.031,0.936,0.063,1.706,0.063c2.842,0,4.543-1.448,4.543-3.612
		C215.817,79.639,214.337,78.611,211.407,78.611"/>
	<path fill="#F47929" d="M235.673,89.823H225.45c-0.095,3.71,1.548,5.384,4.741,5.384c1.639,0,3.354-0.386,4.669-1.027l0.324,2.733
		c-1.604,0.683-3.574,1.034-5.542,1.034c-4.994,0-7.737-2.578-7.737-8.22c0-4.835,2.646-8.439,7.318-8.439
		c4.582,0,6.545,3.123,6.545,6.927C235.769,88.666,235.733,89.211,235.673,89.823 M229.098,83.835c-1.932,0-3.289,1.412-3.584,3.576
		h6.802C232.383,85.216,231.119,83.835,229.098,83.835"/>
	<path fill="#F47929" d="M247.944,97.627c0-1.034,0.034-2.096,0.161-2.969l-0.028-0.028c-0.777,1.9-2.774,3.32-5.32,3.32
		c-2.74,0-4.48-1.552-4.48-4.096c0-3.677,3.668-5.8,9.445-5.8v-1.034c0-1.999-0.84-3.025-3.357-3.025
		c-1.474,0-3.412,0.45-4.766,1.285l-0.32-2.93c1.584-0.612,3.573-1.063,5.641-1.063c4.896,0,6.25,2.123,6.25,5.412v6.541
		c0,1.389,0.032,3.032,0.095,4.386H247.944z M247.722,90.371c-5.031,0-6.123,1.516-6.123,2.906c0,1.192,0.838,1.966,2.195,1.966
		c2.35,0,3.928-2.258,3.928-4.549V90.371z"/>
	<rect x="254.864" y="74.1" fill="#F47929" width="3.44" height="23.527"/>
	<path fill="#F47929" d="M263.745,79.225c-1.228,0-2.227-0.967-2.227-2.161c0-1.195,0.999-2.162,2.227-2.162
		c1.186,0,2.191,0.938,2.191,2.162C265.937,78.258,264.931,79.225,263.745,79.225 M262.001,81.608h3.446v16.016h-3.446V81.608z"/>
	<path fill="#F47929" d="M268.644,97.624v-2.448l7.118-10.539c-0.802,0.031-2.22,0.066-3.861,0.066h-3.094v-3.095h11.052v2.419
		l-7.026,10.505c0.806-0.034,2.709-0.067,4.027-0.067h3.126v3.159H268.644z"/>
	<path fill="#F47929" d="M296.062,89.823h-10.213c-0.099,3.71,1.547,5.384,4.74,5.384c1.639,0,3.348-0.386,4.674-1.027l0.319,2.733
		c-1.617,0.683-3.58,1.034-5.545,1.034c-4.994,0-7.733-2.578-7.733-8.22c0-4.835,2.641-8.439,7.314-8.439
		c4.575,0,6.542,3.123,6.542,6.927C296.16,88.666,296.132,89.211,296.062,89.823 M289.485,83.835c-1.928,0-3.279,1.412-3.571,3.576
		h6.802C292.776,85.216,291.518,83.835,289.485,83.835"/>
	<path fill="#F47929" d="M309.467,97.624c0-0.838,0.063-2.097,0.229-2.997h-0.066c-0.872,1.963-2.744,3.32-5.22,3.32
		c-3.932,0-5.9-2.901-5.9-7.54c0-5.515,3.197-9.056,8.376-9.056c0.781,0,1.552,0.063,2.421,0.13V74.1h3.418v23.524H309.467z
		 M309.306,84.379c-0.869-0.189-1.71-0.288-2.547-0.288c-2.736,0-4.606,1.678-4.606,5.993c0,3.225,0.999,5.024,3.189,5.024
		c2.547,0,3.964-3.027,3.964-5.767V84.379z"/>
</g>
</svg>
