<?xml version="1.0" encoding="UTF-8" standalone="no"?>
<svg
   version="1.1"
   id="svg11038"
   viewBox="0 0 1236.0087 161.13016"
   height="45.474514mm"
   width="348.82913mm"
   xmlns="http://www.w3.org/2000/svg"
   xmlns:svg="http://www.w3.org/2000/svg"
   xmlns:rdf="http://www.w3.org/1999/02/22-rdf-syntax-ns#"
   xmlns:cc="http://creativecommons.org/ns#"
   xmlns:dc="http://purl.org/dc/elements/1.1/">
  <defs
     id="defs11040" />
  <metadata
     id="metadata11043">
    <rdf:RDF>
      <cc:Work
         rdf:about="">
        <dc:format>image/svg+xml</dc:format>
        <dc:type
           rdf:resource="http://purl.org/dc/dcmitype/StillImage" />
        <dc:title />
      </cc:Work>
    </rdf:RDF>
  </metadata>
  <g
     transform="translate(858.00438,-193.12212)"
     id="layer1">
    <g
       id="g11594">
      <g
         id="g10482"
         transform="matrix(20.326751,0,0,-20.326751,-8.7527219,193.32539)">
        <path
           d="m 0,0 -1.541,-0.004 v -7.907 h 7.067 c 0.773,0.328 1.187,0.895 1.347,1.557 h -6.877 z m 11.532,-1.58 h 5.895 c 0.819,0.162 1.429,0.885 1.6,1.584 H 9.931 c 0.17,-0.699 0.789,-1.422 1.601,-1.584 m -19.091,0.022 c 0.819,0.238 1.509,0.863 1.677,1.556 h -8.65 v -4.672 h 7.08 v -1.64 l -5.553,-0.005 c -0.871,-0.242 -1.607,-0.826 -1.976,-1.598 l 0.449,0.008 h 8.602 v 4.788 h -7.075 v 1.563 z m 17.728,-6.351 h 1.533 v 3.183 h 5.581 v -3.183 h 1.532 v 4.774 l -8.646,0.008 z m -36.615,6.334 h 5.894 c 0.82,0.163 1.429,0.886 1.6,1.585 h -9.095 c 0.17,-0.699 0.788,-1.422 1.601,-1.585 m -15.334,1.567 c 0.177,-0.692 0.776,-1.397 1.597,-1.575 h 2.481 l 0.126,-0.05 v -6.26 h 1.55 v 6.26 l 0.14,0.05 h 2.484 c 0.829,0.214 1.415,0.883 1.59,1.575 v 0.015 h -9.968 z m 15.334,-7.902 h 5.894 c 0.82,0.164 1.429,0.885 1.6,1.585 h -9.095 c 0.17,-0.7 0.788,-1.421 1.601,-1.585 m 0,3.21 h 5.894 c 0.82,0.162 1.429,0.885 1.6,1.584 h -9.095 c 0.17,-0.699 0.788,-1.422 1.601,-1.584"
           style="fill:#ffffff;fill-opacity:1;fill-rule:nonzero;stroke:none"
           id="path10484" />
      </g>
    </g>
  </g>
</svg>
